<svg width="464" height="311" viewBox="0 0 464 311" fill="none" xmlns="http://www.w3.org/2000/svg">
<path d="M430.828 31.5778H444.005V18.7556H430.828V31.5778ZM444.005 35.5333H430.828V44.9444H444.005V35.5333ZM426.674 35.5333H414.906C413.778 35.5333 412.861 34.6444 412.861 33.5556V16.7778C412.861 15.6889 413.778 14.8 414.906 14.8H426.674V3.95556H36.363V14.8H48.274C49.0474 14.8 49.6089 15.4111 49.6089 15.4111C50.0328 15.7556 50.2448 16.2333 50.2448 16.7778V33.5556C50.2448 34.0333 49.9641 34.6444 49.6089 34.9167C49.1849 35.2611 48.6922 35.4667 48.1995 35.5333H36.363V46.9222C36.363 48.0167 35.4464 48.9 34.3177 48.9H17.0557C15.9271 48.9 15.0104 48.0167 15.0104 46.9222V35.5333H4.09063V274.922H15.0104V263.461C15.0104 262.372 15.9271 261.483 17.0557 261.483H34.3177C35.6583 261.483 36.363 262.439 36.363 263.733V274.922H48.1995C49.3281 274.922 50.2448 275.806 50.2448 276.9V293.606C50.2448 294.7 49.3281 295.583 48.1995 295.583H36.363V306.428H426.674V295.583H414.906C413.778 295.583 412.861 294.7 412.861 293.606V276.9C412.861 275.806 413.778 274.922 414.906 274.922H426.674V263.461C426.674 262.372 427.591 261.483 428.788 261.483H446.05C447.179 261.483 448.095 262.372 448.095 263.461V274.922H459.015V35.5333H448.095V46.9222C448.095 48.0167 447.179 48.9 446.05 48.9H428.788C427.591 48.9 426.674 48.0167 426.674 46.9222V35.5333ZM32.2781 278.878H19.101V291.628H32.2781V278.878ZM15.0104 278.878H2.04531C0.916667 278.878 0 277.989 0 276.9V33.5556C0 32.4667 0.916667 31.5778 2.04531 31.5778H15.0104V18.7556H2.04531C0.916667 18.7556 0 17.8667 0 16.7778V1.97778C0 0.888889 0.916667 0 2.04531 0H17.0557C18.1844 0 19.101 0.888889 19.101 1.97778V14.8H32.2781V1.97778C32.2781 0.888889 33.1948 0 34.3177 0H428.788C429.911 0 430.828 0.888889 430.828 1.97778V14.8H444.005V1.97778C444.005 0.888889 444.921 0 446.05 0H461.06C462.189 0 463.1 0.888889 463.1 1.97778V16.7778C463.1 17.8667 462.189 18.7556 461.06 18.7556H448.095V31.5778H461.06C462.189 31.5778 463.1 32.4667 463.1 33.5556V276.9C463.1 277.989 462.189 278.878 461.06 278.878H448.095V291.628H461.06C462.189 291.628 463.1 292.517 463.1 293.606V308.406C463.1 309.5 462.189 310.383 461.06 310.383H446.05C444.921 310.383 444.005 309.5 444.005 308.406V295.583H430.828V308.406C430.828 309.5 429.911 310.383 428.788 310.383H34.3177C33.1948 310.383 32.2781 309.5 32.2781 308.406V295.583H19.101V308.406C19.101 309.5 18.1844 310.383 17.0557 310.383H2.04531C0.916667 310.383 0 309.5 0 308.406V293.606C0 292.517 0.916667 291.628 2.04531 291.628H15.0104V278.878ZM19.101 274.922H32.2781V265.439H19.101V274.922ZM4.09063 295.583V306.428H15.0104V295.583H4.09063ZM36.363 291.628H46.1599V278.878H36.363V291.628ZM448.095 3.95556V14.8H459.015V3.95556H448.095ZM19.101 18.7556V31.5778H32.2781V18.7556H19.101ZM19.101 35.5333V44.9444H32.2781V35.5333H19.101ZM15.0104 14.8V3.95556H4.09063V14.8H15.0104ZM459.015 306.428V295.583H448.095V306.428H459.015ZM36.363 18.7556V31.5778H46.1599V18.7556H36.363ZM426.674 278.878H416.946V291.628H426.674V278.878ZM430.828 274.922H444.005V265.439H430.828V274.922ZM444.005 278.878H430.828V291.628H444.005V278.878ZM426.674 31.5778V18.7556H416.946V31.5778H426.674Z" fill="#CFB776"/>
</svg>
